HIERARCHY
ROOT root
{
	OFFSET	0	13.1	24.9
	CHANNELS 6  Xposition Yposition Zposition Xrotation Yrotation Zrotation
	JOINT spine_1
	{
		OFFSET	0	9.99999	0
		CHANNELS 3  Xrotation Yrotation Zrotation
		JOINT spine_2
		{
			OFFSET	0	112	-10
			CHANNELS 3  Xrotation Yrotation Zrotation
			JOINT spine_3
			{
				OFFSET	0	206.5	19.3
				CHANNELS 3  Xrotation Yrotation Zrotation
				JOINT spine_4
				{
					OFFSET	0	110.4	14.6
					CHANNELS 3  Xrotation Yrotation Zrotation
					JOINT neck_1
					{
						OFFSET	0	71.8	-50.3
						CHANNELS 3  Xrotation Yrotation Zrotation
						JOINT neck_2
						{
							OFFSET	0	86.2	-25.8
							CHANNELS 3  Xrotation Yrotation Zrotation
							JOINT head_ee
							{
								OFFSET	0	179.8	-8.7
								CHANNELS 3  Xrotation Yrotation Zrotation
								End Site
								{
									OFFSET	1	0	0
								}
							}
						}
					}
					JOINT left_clavicle
					{
						OFFSET	-43.2	22.4	-70.8
						CHANNELS 3  Xrotation Yrotation Zrotation
						JOINT left_shoulder
						{
							OFFSET	-93.9	-5.79999	48.7
							CHANNELS 3  Xrotation Yrotation Zrotation
							JOINT left_elbow
							{
								OFFSET	-291.4	-30.8	15.2
								CHANNELS 3  Xrotation Yrotation Zrotation
								JOINT left_lowarm_twist
								{
									OFFSET	-110.7	-3.89999	13.6
									CHANNELS 3  Xrotation Yrotation Zrotation
									JOINT left_hand
									{
										OFFSET	-110.7	-3.89999	13.6
										CHANNELS 3  Xrotation Yrotation Zrotation
										JOINT left_ee
										{
											OFFSET	-80.8	-5.10001	12.1
											CHANNELS 3  Xrotation Yrotation Zrotation
											End Site
											{
												OFFSET	1	0	0
											}
										}
									}
								}
							}
						}
					}
					JOINT right_clavicle
					{
						OFFSET	43.2	22.4	-70.8
						CHANNELS 3  Xrotation Yrotation Zrotation
						JOINT right_shoulder
						{
							OFFSET	93.9	-5.79999	48.7
							CHANNELS 3  Xrotation Yrotation Zrotation
							JOINT right_elbow
							{
								OFFSET	291.4	-30.8	15.2
								CHANNELS 3  Xrotation Yrotation Zrotation
								JOINT right_lowarm_twist
								{
									OFFSET	110.7	-3.89999	13.6
									CHANNELS 3  Xrotation Yrotation Zrotation
									JOINT right_hand
									{
										OFFSET	110.7	-3.89999	13.6
										CHANNELS 3  Xrotation Yrotation Zrotation
										JOINT right_ee
										{
											OFFSET	80.8	-5.10001	12.1
											CHANNELS 3  Xrotation Yrotation Zrotation
											End Site
											{
												OFFSET	1	0	0
											}
										}
									}
								}
							}
						}
					}
				}
			}
		}
	}
	JOINT left_hip
	{
		OFFSET	-82.8	-127.5	0.300001
		CHANNELS 3  Xrotation Yrotation Zrotation
		JOINT left_knee
		{
			OFFSET	-28.2	-396.7	2.2
			CHANNELS 3  Xrotation Yrotation Zrotation
			JOINT left_ankle
			{
				OFFSET	-11.7	-411.3	35.4
				CHANNELS 3  Xrotation Yrotation Zrotation
				JOINT left_toes
				{
					OFFSET	0	-60	-88.6
					CHANNELS 3  Xrotation Yrotation Zrotation
					JOINT left_foot_ee
					{
						OFFSET	-22.5	-16.5	-42.2
						CHANNELS 3  Xrotation Yrotation Zrotation
						End Site
						{
							OFFSET	1	0	0
						}
					}
				}
			}
		}
	}
	JOINT right_hip
	{
		OFFSET	82.8	-127.5	0.300001
		CHANNELS 3  Xrotation Yrotation Zrotation
		JOINT right_knee
		{
			OFFSET	28.2	-396.7	2.2
			CHANNELS 3  Xrotation Yrotation Zrotation
			JOINT right_ankle
			{
				OFFSET	11.7	-411.3	35.4
				CHANNELS 3  Xrotation Yrotation Zrotation
				JOINT right_toes
				{
					OFFSET	0	-60	-88.6
					CHANNELS 3  Xrotation Yrotation Zrotation
					JOINT right_foot_ee
					{
						OFFSET	22.5	-16.5	-42.2
						CHANNELS 3  Xrotation Yrotation Zrotation
						End Site
						{
							OFFSET	1	0	0
						}
					}
				}
			}
		}
	}
}
MOTION
Frames: 8
Frame Time: 0.02
1661.44 659.973 -1880.02 -34.8614 72.4667 43.0996 5.08718 -0.113844 -1.20243 5.08799 -0.0371049 -1.20724 5.08806 0.111247 -1.20268 5.08605 -0.0800748 -1.20515 -4.77424 5.91913 -0.104417 -4.74494 10.9486 0.897812 -0.0 0.0 -0.0 4.39098 17.1242 8.8297 -43.9244 -14.346 54.985 1.43034 -35.3174 0.455367 -4.60421 -0.184802 0.558615 2.33921 4.32631 17.5078 -0.0 0.0 -0.0 10.5618 16.4058 -20.8828 3.69455 -12.1802 -53.5458 1.25538 31.8751 -0.358507 44.6106 0.610542 5.52408 6.11763 6.69763 -42.0714 0.0 0.0 0.0 38.8027 -7.51855 -12.3068 -7.61205 0.237754 1.14317 12.505 13.3824 -1.77015 -38.3535 0.0 0.0 -0.0 0.0 -0.0 -11.9411 -21.1163 -13.9618 -2.82949 -0.106115 -0.421225 38.8736 11.5328 4.96512 -26.0182 0.0 0.0 0.0 0.0 0.0 
1629.33 660.625 -1883.95 -29.3506 72.2358 37.4933 5.3698 -0.127332 -1.37073 5.37085 -0.0398593 -1.37605 5.37081 0.122458 -1.37117 5.3682 -0.0956087 -1.37331 -7.46289 5.92658 1.29896 -7.46511 10.1071 2.53542 -0.0 0.0 -0.0 4.22655 17.0374 8.5714 -43.6853 -14.0606 55.8328 1.61389 -38.6385 0.565818 -4.02675 -0.159166 0.48938 2.20789 9.24416 18.3858 -0.0 0.0 -0.0 10.6388 15.6602 -21.0903 -0.458155 -13.6767 -55.244 1.36916 34.145 -0.420508 41.2923 0.418182 5.1457 5.91018 9.38138 -38.6845 0.0 0.0 0.0 36.8921 -8.20778 -12.5112 -11.4397 0.299428 1.72716 20.3391 12.2794 -2.78401 -37.9323 0.0 0.0 -0.0 0.0 -0.0 -13.9759 -18.6369 -12.7057 -3.14173 -0.116546 -0.468011 37.7792 7.98172 4.78616 -28.9581 0.0 0.0 0.0 0.0 0.0 
1602.3 662.137 -1883.22 -26.6122 71.1577 34.2768 5.68586 -0.135021 -1.58621 5.68726 -0.0338257 -1.59159 5.68675 0.145102 -1.58532 5.68325 -0.107059 -1.58835 -8.82808 6.6667 2.58747 -8.8347 10.6966 4.08248 -0.0 0.0 -0.0 4.46544 16.0719 8.94953 -42.0199 -12.3065 57.2107 2.21841 -47.6924 0.980673 -3.26873 -0.126578 0.398118 1.68451 7.09936 14.0694 -0.0 0.0 -0.0 10.2002 15.8468 -20.1005 -1.88031 -14.8847 -56.7476 1.25619 31.8917 -0.358935 39.8936 0.343742 4.98303 5.69173 8.24591 -37.4747 0.0 0.0 0.0 35.4589 -9.08835 -12.3403 -13.6477 0.317221 2.06546 23.7769 10.6358 -3.19493 -38.5716 0.0 0.0 -0.0 0.0 -0.0 -15.5792 -16.6561 -11.4082 -1.43054 -0.0562534 -0.212324 36.4634 7.51876 4.65524 -29.3971 0.0 0.0 0.0 0.0 0.0 
1574.31 665.49 -1889.21 -25.0981 72.4372 33.6465 5.46787 -0.126221 -1.76681 5.4696 -0.0135568 -1.77125 5.46833 0.192152 -1.76086 5.46401 -0.0883087 -1.7691 -7.71385 6.9556 2.99872 -7.70289 10.8368 4.46018 -0.0 0.0 -0.0 4.26223 15.1455 8.62005 -37.933 -11.0287 58.9483 2.21618 -47.6636 0.979018 -2.51266 -0.0952807 0.306675 1.68081 5.65089 13.5028 -0.0 0.0 -0.0 9.77656 11.6112 -19.3138 -4.48268 -14.2106 -57.2821 1.35575 33.8834 -0.413003 38.3699 0.267201 4.80383 5.6473 10.8818 -35.6109 0.0 0.0 0.0 33.5914 -7.42261 -12.8903 -14.5226 0.320663 2.19965 28.5827 9.28097 -3.73973 -37.6492 0.0 0.0 -0.0 0.0 -0.0 -17.4349 -15.2405 -12.424 -2.01871 -0.0778394 -0.300009 33.2722 1.51991 4.26188 -28.4036 0.0 0.0 0.0 0.0 0.0 
1547.74 666.085 -1896.66 -16.5592 75.7895 24.8829 4.60033 -0.176509 -1.03204 4.60092 -0.110483 -1.04118 4.60249 0.0269116 -1.04668 4.60099 -0.138721 -1.0378 -8.50846 4.86888 1.4742 -8.51419 8.07814 2.55221 -0.0 0.0 -0.0 3.81656 17.5817 7.93501 -43.3783 -16.4702 52.5055 2.80652 -54.2629 1.43832 -0.0244614 -0.000862708 0.00300488 1.0964 6.96959 10.0968 -0.0 0.0 -0.0 9.89919 11.398 -19.588 -6.53344 -14.0677 -59.2477 1.16402 29.9675 -0.311554 38.9641 0.29648 4.87394 5.89163 6.42902 -40.209 0.0 0.0 0.0 29.7895 -7.59267 -12.1225 -17.3946 0.317555 2.64024 32.2286 5.42316 -4.12172 -38.4411 0.0 0.0 -0.0 0.0 -0.0 -22.2772 -17.1419 -12.3823 -4.21932 -0.150581 -0.629883 31.0243 0.00191416 4.01866 -26.276 0.0 0.0 0.0 0.0 0.0 
1523.97 668.562 -1894.23 -12.2305 75.8289 20.3333 4.08158 -0.0552461 -1.00604 4.08215 0.00887925 -1.00751 4.08165 0.149915 -0.996337 4.08026 -0.00931148 -1.00751 -7.94114 4.49207 1.70666 -7.93996 7.174 2.66473 -0.0 0.0 -0.0 3.91145 16.6935 8.07313 -41.4902 -12.7749 56.0702 2.4843 -50.8953 1.18231 -0.582388 -0.0208838 0.0714433 1.11095 4.20209 9.11966 -0.0 0.0 -0.0 9.60209 11.4321 -18.9359 -8.36414 -14.7801 -61.2076 1.07378 28.0086 -0.267817 34.5757 0.0975879 4.34944 4.68022 -2.37676 -34.1382 0.0 0.0 0.0 28.2153 -5.83964 -11.3773 -18.5066 0.310422 2.8107 32.9143 3.5027 -4.19489 -37.6893 0.0 0.0 -0.0 0.0 -0.0 -19.72 -16.931 -9.64052 -12.3427 -0.308281 -1.86544 30.4463 -3.14288 3.94077 -27.0257 0.0 0.0 0.0 0.0 0.0 
1476.85 685.739 -1894.84 -3.91364 78.854 13.6057 3.60536 -0.339392 -1.51519 3.6066 -0.2423 -1.53371 3.61252 -0.0124275 -1.55268 3.60925 -0.257459 -1.53124 -7.2722 3.13496 2.15428 -7.26161 4.2834 2.79456 -0.0 0.0 -0.0 5.8202 14.4268 11.1832 -32.2561 -23.2161 53.8857 1.90483 -43.3332 0.756797 -5.54079 -0.227864 0.670354 1.47282 6.23686 12.325 -0.0 0.0 -0.0 9.38946 6.07625 -18.5314 -9.46978 -16.7401 -59.4208 0.832888 22.4203 -0.165072 32.6062 0.0215256 4.10949 4.34071 -8.51545 -33.6784 0.0 0.0 0.0 22.9607 -4.02955 -11.8051 -18.1359 0.313167 2.75389 34.5763 1.25415 -4.3697 -36.5395 0.0 0.0 -0.0 0.0 -0.0 -17.2877 -14.6903 -10.9916 -7.72329 -0.240097 -1.16008 40.1445 5.0353 4.9445 -23.9434 0.0 0.0 0.0 0.0 0.0 
1476.98 690.692 -1885.37 10.8943 77.8264 -1.0259 0.815137 -0.295608 -1.54087 0.816436 -0.196972 -1.55655 0.822225 0.112135 -1.56495 0.818833 -0.136396 -1.56302 -1.45658 2.73093 0.743888 -1.44625 4.31914 1.12684 -0.0 0.0 -0.0 5.93694 11.176 11.4676 -17.7121 -20.6392 61.4799 1.35944 -33.9557 0.415066 -25.2785 -1.53825 2.81599 1.53759 4.20943 11.986 -0.0 0.0 -0.0 9.54906 7.343 -18.8745 5.6464 -26.0416 -55.8397 0.555794 15.3937 -0.0751156 29.0864 -0.0936883 3.67475 4.63578 -9.17952 -36.272 0.0 0.0 0.0 20.1093 1.82687 -12.3927 -16.7411 0.320203 2.54 25.0435 -8.33499 -3.45261 -8.55735 0.0 0.0 -0.0 0.0 -0.0 -15.8345 -7.05648 -9.66814 -10.814 -0.292017 -1.63144 37.3319 -3.29318 4.62204 -0.991882 0.0 0.0 0.0 0.0 0.0 
